Coordinates
version=1
nRows=14
nColumns=33
inDegrees=yes

Units are S.I. units (second, meters, Newtons, ...)
Angles are in degrees.

endheader
time	ground_thorax_rot_x	ground_thorax_rot_y	ground_thorax_rot_z	ground_thorax_tx	ground_thorax_ty	ground_thorax_tz	clav_prot_r	clav_elev_r	scapula_abduction_r	scapula_elevation_r	scapula_upward_rot_r	scapula_winging_r	shoulder_elv_r	plane_of_elev_r	axial_rot_r	elbow_flexion_r	pro_sup_r	wrist_flex_r	wrist_dev_r	clav_prot_l	clav_elev_l	scapula_abduction_l	scapula_elevation_l	scapula_upward_rot_l	scapula_winging_l	shoulder_elv_l	plane_of_elev_l	axial_rot_l	elbow_flexion_l	pro_sup_l	wrist_flex_l	wrist_dev_l
      3.58000000	    -39.46318944	    -15.15463603	     10.23614203	    -94.08146808	    790.29230470	      0.97367572	      8.69144860	    -45.00000000	     35.20758993	    -45.00000000	    -38.21993106	  -2249.98919404	  -4255.42410170	     28.25865176	     83.16107065	   2529.50315682	     17.20411297	     17.48201561	     11.22845437	     18.88126065	     39.71301424	    -41.26554170	    -45.00000000	    -44.20679264	   2237.12237897	  -4973.22585878	     23.95250854	    -26.78489523	   1805.67380524	     16.37379140	     11.20883018	    -19.04517172
      3.59000000	    -39.56620067	    -15.46381376	     10.68321679	    -98.43025456	    790.72867330	      0.46589497	      8.30768296	    -45.00000000	     34.15643957	    -45.00000000	    -40.63725422	  -2250.04265075	  -4254.87468030	     28.65848410	     83.30914047	   2529.53563645	     17.55663572	     17.40762690	     10.57698094	     18.33013101	     40.34597548	    -40.96285379	    -45.00000000	    -45.00000000	   2237.20355179	  -4972.62842611	     23.90012170	    -26.79975693	   1805.70672871	     16.22173306	     11.60145794	    -19.16275309
      3.60000000	    -39.56388582	    -15.51635325	     10.54663517	   -102.98380621	    791.23494007	     -0.06121060	      8.59556699	    -45.00000000	     34.20737055	    -45.00000000	    -40.45089237	  -2250.53734001	  -4254.90818060	     28.42487539	     84.42884996	   2529.53494501	     18.02497576	     17.39530798	     10.62680244	     18.48427118	     40.08499887	    -40.78559683	    -45.00000000	    -45.00000000	   2237.39309594	  -4972.54986472	     23.36313248	    -28.10704758	   1805.99871628	     16.33591801	     11.32362066	    -19.21362684
      3.61000000	    -39.75036197	    -15.59982882	     10.56674509	   -107.73703303	    791.82013772	     -0.60393762	      7.96721984	    -45.00000000	     33.45458246	    -45.00000000	    -42.47631359	  -2250.50643910	  -4254.43370153	     28.79857348	     83.64161990	   2529.56871994	     18.30365947	     17.36516920	     10.27385940	     17.75776281	     40.03802198	    -40.44621466	    -45.00000000	    -45.00000000	   2237.92956096	  -4972.67763780	     23.68767078	    -28.32662037	   1805.76251047	     16.35955246	     11.67534889	    -19.26469394
      3.62000000	    -39.78441142	    -15.67849436	     10.59130941	   -112.65920754	    792.48263127	     -1.15750012	      8.05739754	    -45.00000000	     33.15276988	    -45.00000000	    -43.35420504	  -2250.77580344	  -4254.15430282	     28.80436077	     83.90953718	   2529.59034160	     18.74977388	     17.35849065	     10.18617087	     17.61384807	     40.03287122	    -40.15487152	    -45.00000000	    -45.00000000	   2238.15650915	  -4972.63831874	     23.42197804	    -29.23322548	   1805.82302645	     16.49898149	     11.63359841	    -19.30332762
      3.63000000	    -39.83510852	    -15.67046387	     10.59372953	   -117.73033251	    793.22606477	     -1.71837186	      8.53618499	    -45.00000000	     33.04623065	    -45.00000000	    -43.06248541	  -2251.48242069	  -4254.30291026	     28.55724234	     86.02377384	   2529.68472381	     19.33318635	     17.29336177	     10.00192537	     17.95493198	     39.84077355	    -39.91482814	    -45.00000000	    -45.00000000	   2238.13898096	  -4972.30136929	     22.75073888	    -30.62132916	   1806.13025560	     16.68186771	     11.44375624	    -19.35176596
      3.64000000	    -39.98320957	    -15.78750064	     10.48947226	   -122.92974089	    794.06277184	     -2.28295910	      8.17016525	    -45.00000000	     32.67349013	    -45.00000000	    -44.99084527	  -2251.38992819	  -4253.77347504	     28.84132821	     84.52726371	   2529.72217188	     19.64518477	     17.33435698	      9.96295381	     17.31896416	     39.94314348	    -39.50223936	    -45.00000000	    -45.00000000	   2238.75378961	  -4972.43428921	     22.91357521	    -31.11813495	   1806.10435874	     16.82601436	     11.56982657	    -19.42274089
      3.65000000	    -40.04085107	    -15.81953798	     10.53569388	   -128.22871324	    794.99224116	     -2.84731478	      8.57285737	    -45.00000000	     32.54759602	    -45.00000000	    -45.00000000	  -2252.09961508	  -4253.87143604	     28.70228497	     86.69840131	   2529.86478910	     20.30257408	     17.27075053	      9.65690733	     17.53310100	     39.71205481	    -39.18905389	    -45.00000000	    -45.00000000	   2238.80008361	  -4972.16097380	     22.42061555	    -32.42600949	   1806.18481676	     17.09155116	     11.50221293	    -19.42842654
      3.66000000	    -40.07226620	    -15.65050497	     10.36010720	   -133.60151885	    796.03046057	     -3.40643019	      8.64223681	    -45.00000000	     32.53847059	    -45.00000000	    -45.00000000	  -2252.57888302	  -4253.79131324	     28.49559676	     87.22539567	   2529.93117993	     20.83712624	     17.27161508	      9.56755172	     17.28591845	     39.67575300	    -38.99574288	    -45.00000000	    -45.00000000	   2239.06625182	  -4972.14528328	     22.19770502	    -33.51791475	   1806.37839736	     17.31899322	     11.46471251	    -19.49758864
      3.67000000	    -40.13047753	    -15.20855381	      9.83259488	   -139.01690196	    797.18883300	     -3.95361481	      8.42378966	    -45.00000000	     32.60133275	    -45.00000000	    -45.00000000	  -2252.68625950	  -4253.56450258	     28.23818458	     86.55345387	   2530.00666846	     21.44942538	     17.37973455	      9.76823245	     17.06482295	     39.71074878	    -38.78980077	    -45.00000000	    -45.00000000	   2239.26243440	  -4972.19891658	     22.24365712	    -33.67393917	   1806.46542019	     17.48447228	     11.52067772	    -19.59110152
      3.68000000	    -40.16515646	    -15.27901118	      9.89185017	   -144.44216217	    798.47467637	     -4.48157656	      8.72861984	    -45.00000000	     32.36573390	    -45.00000000	    -45.00000000	  -2253.36138606	  -4253.57524664	     28.17188018	     88.24796151	   2530.08491493	     22.21794745	     17.33082135	      9.46339841	     16.99108749	     39.55753761	    -38.47454548	    -45.00000000	    -45.00000000	   2239.51184871	  -4972.09231615	     21.75629097	    -35.43273535	   1806.63228933	     17.93782529	     11.41047663	    -19.62998488
      3.69000000	    -40.23112851	    -14.93277749	      9.46088787	   -149.84994462	    799.90540713	     -4.98213349	      8.61728892	    -45.00000000	     32.40936916	    -45.00000000	    -45.00000000	  -2253.51871918	  -4253.36472074	     27.92515206	     88.19036606	   2530.25660180	     22.97818873	     17.45701305	      9.54199503	     16.93672821	     39.45697941	    -38.19603998	    -45.00000000	    -45.00000000	   2239.60046733	  -4972.03819909	     21.66738504	    -35.22670345	   1806.75132180	     18.12563750	     11.59021939	    -19.78248914
      3.70000000	    -40.29292627	    -14.71288800	      9.28629109	   -155.21243483	    801.48513154	     -5.44780949	      8.74141259	    -45.00000000	     32.43594798	    -45.00000000	    -45.00000000	  -2254.03504034	  -4253.32616807	     27.79497540	     88.88195562	   2530.39409735	     23.86713869	     17.52049689	      9.43014216	     16.81573454	     39.32745122	    -37.88700524	    -45.00000000	    -45.00000000	   2239.73924594	  -4971.88065527	     21.43633349	    -36.03210446	   1806.92057863	     18.62306833	     11.56060507	    -19.90150177
      3.71000000	    -40.34549527	    -14.49653641	      9.04511710	   -160.50226746	    803.21918646	     -5.86956708	      8.84425847	    -45.00000000	     32.40156234	    -45.00000000	    -45.00000000	  -2254.42254107	  -4253.28993494	     27.69447930	     89.57839425	   2530.54301727	     24.81207627	     17.61706133	      9.35551413	     16.76485999	     39.17173156	    -37.60741239	    -45.00000000	    -45.00000000	   2239.91741056	  -4971.84173790	     21.23356526	    -36.76593255	   1807.06676103	     19.15536250	     11.51135439	    -20.02811267
